<svg xmlns="http://www.w3.org/2000/svg" viewBox="0 0 1400 650" style="background-color:#1a1a1a; font-family:'Courier New', Courier, monospace; color:#e0e0e0;">
    <!-- Title -->
    <text x="700" y="40" fill="#ffffff" font-size="26" font-weight="bold" text-anchor="middle">SMOL-MAC HYDRA RING CABLE: FULL CONTINUOUS ROUTING</text>
    <text x="700" y="65" fill="#aaaaaa" font-size="14" text-anchor="middle">Showing physical wire flow from Node 0 → 1 → 2 ... → 30 → (Return to 0)</text>
    <text x="700" y="85" fill="#ffcc00" font-size="14" font-weight="bold" text-anchor="middle">ALL CONNECTORS SHOWN FROM SOLDER SIDE (BACK OF PLUG)</text>

    <!-- Define reusable Mini-DIN-8 Connector (Solder Side) -->
    <defs>
        <g id="din8">
            <!-- Shell -->
            <circle cx="0" cy="0" r="45" fill="#2a2a2a" stroke="#777" stroke-width="3"/>
            <path d="M -25 -38 L 25 -38" stroke="#777" stroke-width="3" fill="none"/> <!-- Top Flat -->
            
            <!-- Ground Pin (Center) -->
            <circle cx="0" cy="0" r="5" fill="#ffffff"/> 
            <text x="0" y="-10" fill="#ffffff" font-size="11" font-weight="bold" text-anchor="middle">4(GND)</text>
            
            <!-- Tx Pins (Right side on Solder View) -->
            <circle cx="30" cy="0" r="5" fill="#ff5555"/> 
            <text x="72" y="-0" fill="#ff5555" font-size="10" font-weight="bold" text-anchor="middle">3(Tx-)</text>
            <circle cx="18" cy="22" r="5" fill="#ffaa00"/> 
            <text x="82" y="32" fill="#ffaa00" font-size="10" font-weight="bold" text-anchor="middle">6(Tx+)</text>
            
            <!-- Rx Pins (Left side on Solder View) -->
            <circle cx="-30" cy="0" r="5" fill="#55aaff"/> 
            <text x="-72" y="-0" fill="#55aaff" font-size="10" font-weight="bold" text-anchor="middle">5(Rx-)</text>
            <circle cx="-18" cy="22" r="5" fill="#00ffaa"/> 
            <text x="-82" y="32" fill="#00ffaa" font-size="10" font-weight="bold" text-anchor="middle">8(Rx+)</text>
            
            <!-- Unused Pins -->
            <circle cx="0" cy="30" r="4" fill="#444"/> <!-- 7 -->
            <circle cx="-18" cy="-22" r="4" fill="#444"/> <!-- 2 -->
            <circle cx="18" cy="-22" r="4" fill="#444"/> <!-- 1 -->
        </g>
    </defs>

    <!-- Main Cable Jacket / Trunk Representation -->
    <rect x="100" y="380" width="1200" height="60" fill="#333333" rx="10"/>
    <text x="700" y="410" fill="#555555" font-size="12" font-weight="bold" text-anchor="middle">MAIN CABLE BUNDLE (CAT5 / ETHERNET CABLE)</text>

    <!-- ==================== CONNECTORS ==================== -->
    <use href="#din8" x="200" y="220" />
    <text x="200" y="140" fill="#ffffff" font-size="18" font-weight="bold" text-anchor="middle">NODE 0</text>
    <text x="200" y="155" fill="#aaaaaa" font-size="12" text-anchor="middle">(Master)</text>

    <use href="#din8" x="500" y="220" />
    <text x="500" y="140" fill="#ffffff" font-size="18" font-weight="bold" text-anchor="middle">NODE 1</text>
    <text x="500" y="155" fill="#aaaaaa" font-size="12" text-anchor="middle">(Slave)</text>

    <use href="#din8" x="800" y="220" />
    <text x="800" y="140" fill="#ffffff" font-size="18" font-weight="bold" text-anchor="middle">NODE 2</text>
    <text x="800" y="155" fill="#aaaaaa" font-size="12" text-anchor="middle">(Slave)</text>

    <text x="1000" y="220" fill="#888888" font-size="36" font-weight="bold" text-anchor="middle">. . .</text>

    <use href="#din8" x="1200" y="220" />
    <text x="1200" y="140" fill="#ffffff" font-size="18" font-weight="bold" text-anchor="middle">NODE 30</text>
    <text x="1200" y="155" fill="#aaaaaa" font-size="12" text-anchor="middle">(Final Slave)</text>


    <!-- ==================== WIRING ROUTES ==================== -->
    
    <!-- COMMON GROUND DAISY CHAIN (Brown Wire) -->
    <!-- Splices at every pin 4 -->
    <path d="M 200 220 L 200 395 L 1200 395 L 1200 220" fill="none" stroke="#aa7744" stroke-width="4" stroke-linejoin="round"/>
    <path d="M 500 395 L 500 220" fill="none" stroke="#aa7744" stroke-width="4"/>
    <path d="M 800 395 L 800 220" fill="none" stroke="#aa7744" stroke-width="4"/>
    <circle cx="200" cy="395" r="5" fill="#aa7744"/>
    <circle cx="500" cy="395" r="5" fill="#aa7744"/>
    <circle cx="800" cy="395" r="5" fill="#aa7744"/>
    <circle cx="1200" cy="395" r="5" fill="#aa7744"/>
    <text x="210" y="390" fill="#aa7744" font-size="12">GND Splices</text>

    <!-- NODE 0 to NODE 1 (Orange Pair) -->
    <!-- Tx- (Pin 3) to Rx- (Pin 5) -->
    <path d="M 230 220 C 260 220, 260 300, 260 330 L 440 330 C 440 300, 440 220, 470 220" fill="none" stroke="#ff8800" stroke-width="3" stroke-dasharray="6,4"/>
    <!-- Tx+ (Pin 6) to Rx+ (Pin 8) -->
    <path d="M 218 242 C 248 242, 248 340, 248 340 L 452 340 C 452 340, 452 242, 482 242" fill="none" stroke="#ff8800" stroke-width="3"/>
    <text x="350" y="325" fill="#ff8800" font-size="10" text-anchor="middle">N0 Tx -> N1 Rx (Twisted Pair)</text>

    <!-- NODE 1 to NODE 2 (Green Pair) -->
    <!-- Tx- (Pin 3) to Rx- (Pin 5) -->
    <path d="M 530 220 C 560 220, 560 300, 560 330 L 740 330 C 740 300, 740 220, 770 220" fill="none" stroke="#00cc44" stroke-width="3" stroke-dasharray="6,4"/>
    <!-- Tx+ (Pin 6) to Rx+ (Pin 8) -->
    <path d="M 518 242 C 548 242, 548 340, 548 340 L 752 340 C 752 340, 752 242, 782 242" fill="none" stroke="#00cc44" stroke-width="3"/>
    <text x="650" y="325" fill="#00cc44" font-size="10" text-anchor="middle">N1 Tx -> N2 Rx (Twisted Pair)</text>

    <!-- NODE 2 to NODE 3 (Cut off, goes into bundle) -->
    <path d="M 830 220 C 860 220, 860 300, 860 330 L 930 330" fill="none" stroke="#ff8800" stroke-width="3" stroke-dasharray="6,4"/>
    <path d="M 818 242 C 848 242, 848 340, 848 340 L 930 340" fill="none" stroke="#ff8800" stroke-width="3"/>

    <!-- NODE 29 to NODE 30 (Comes out of bundle) -->
    <path d="M 1070 330 L 1140 330 C 1140 300, 1140 220, 1170 220" fill="none" stroke="#00cc44" stroke-width="3" stroke-dasharray="6,4"/>
    <path d="M 1070 340 L 1152 340 C 1152 340, 1152 242, 1182 242" fill="none" stroke="#00cc44" stroke-width="3"/>

    <!-- THE LONG RETURN: NODE 30 to NODE 0 (Blue Pair, routed through the bottom trunk) -->
    <!-- N30 Tx- (Pin 3) to N0 Rx- (Pin 5) -->
    <path d="M 1230 220 C 1270 220, 1270 415, 1270 415 L 130 415 C 130 415, 130 220, 170 220" fill="none" stroke="#3388ff" stroke-width="3" stroke-dasharray="6,4"/>
    <!-- N30 Tx+ (Pin 6) to N0 Rx+ (Pin 8) -->
    <path d="M 1218 242 C 1285 242, 1285 430, 1285 430 L 115 430 C 115 430, 115 242, 182 242" fill="none" stroke="#3388ff" stroke-width="3"/>
    
    <text x="700" y="455" fill="#3388ff" font-size="14" font-weight="bold" text-anchor="middle">THE "LONG RETURN" PAIR (Node 30 Transmit → Node 0 Receive)</text>
    <text x="700" y="470" fill="#3388ff" font-size="11" text-anchor="middle">This single twisted pair spans the entire length of the cable bundle unbroken.</text>


    <!-- ==================== EXPLANATORY BOXES ==================== -->
    <g transform="translate(100, 510)">
        <rect x="0" y="0" width="380" height="110" fill="#222" stroke="#555" stroke-width="2"/>
        <text x="10" y="20" fill="#fff" font-size="11" font-weight="bold">How to wire inside ONE connector shell (e.g. Node 1):</text>
        <text x="10" y="40" fill="#aaa" font-size="9">• TWO separate twisted pairs enter the connector housing.</text>
        <text x="10" y="55" fill="#aaa" font-size="9">• Pair A (From previous Mac): Solder to Pins 5 &amp; 8.</text>
        <text x="10" y="70" fill="#aaa" font-size="9">• Pair B (To next Mac): Solder to Pins 3 &amp; 6.</text>
        <text x="10" y="85" fill="#aaa" font-size="9">• Ground: Strip middle of GND wire, solder to Pin 4, let it</text>
        <text x="10" y="100" fill="#aaa" font-size="9">  continue to the next Mac.</text>
    </g>

    <g transform="translate(520, 510)">
        <rect x="0" y="0" width="380" height="110" fill="#222" stroke="#555" stroke-width="2"/>
        <text x="10" y="20" fill="#fff" font-size="11" font-weight="bold">Physical Construction Tip (Using CAT5 Ethernet):</text>
        <text x="10" y="40" fill="#aaa" font-size="9">You don't need 31 separate cables. Buy one long spool of CAT5.</text>
        <text x="10" y="55" fill="#aaa" font-size="9">Every 12 inches, carefully slice off 2 inches of outer jacket.</text>
        <text x="10" y="70" fill="#aaa" font-size="9">Pull out the Orange pair and cut it. Orange-In goes to Rx,</text>
        <text x="10" y="85" fill="#aaa" font-size="9">Orange-Out goes to Tx. Leave the Blue pair completely</text>
        <text x="10" y="100" fill="#aaa" font-size="9">un-cut inside the jacket to act as your Long Return!</text>
    </g>

    <g transform="translate(940, 510)">
        <rect x="0" y="0" width="360" height="110" fill="#222" stroke="#555" stroke-width="2"/>
        <text x="10" y="20" fill="#fff" font-size="11" font-weight="bold">Signal Legend:</text>
        <path d="M 10 35 L 40 35" stroke="#ff8800" stroke-width="3"/> <text x="50" y="40" fill="#ff8800" font-size="9">Tx+ / Rx+ (Solid wire of pair)</text>
        <path d="M 10 55 L 40 55" stroke="#ff8800" stroke-width="3" stroke-dasharray="4,2"/> <text x="50" y="60" fill="#ff8800" font-size="9">Tx- / Rx- (Striped wire of pair)</text>
        <path d="M 10 75 L 40 75" stroke="#aa7744" stroke-width="3"/> <text x="50" y="80" fill="#aa7744" font-size="9">Daisy-Chained Ground</text>
        <path d="M 10 95 L 40 95" stroke="#3388ff" stroke-width="3"/> <text x="50" y="100" fill="#3388ff" font-size="9">Long Return Pair (Node 30 → 0)</text>
    </g>

</svg>
